<?xml version="1.0" encoding="UTF-8"?>
<svg version="1.1" xmlns="http://www.w3.org/2000/svg" width="1024" height="1024">
<path d="M0 0 C1.84606774 0.68714086 3.68426147 1.39567231 5.515625 2.12109375 C6.579021 2.52255615 7.64241699 2.92401855 8.73803711 3.33764648 C11.12576505 4.24052655 13.51030084 5.15187999 15.89208984 6.0703125 C19.92904735 7.62668025 23.98081575 9.14194373 28.03515625 10.65234375 C29.54365046 11.21524985 31.05211313 11.77824048 32.56054688 12.34130859 C33.33906006 12.63189148 34.11757324 12.92247437 34.91967773 13.22186279 C46.54129917 17.56097452 58.15094403 21.92855063 69.72630596 26.3897295 C75.48221622 28.60758713 81.24334082 30.81156168 87.00744343 33.00803661 C90.60624973 34.38041325 94.20183743 35.7601969 97.79104614 37.15750122 C101.20850145 38.48787574 104.63278585 39.79895245 108.06267738 41.09691238 C109.93700184 41.81190577 111.80365804 42.54690191 113.66996765 43.28256226 C124.36050112 47.29464697 133.59671223 48.13011819 144.2890625 43.875 C145.05747971 43.58813324 145.82589691 43.30126648 146.61759949 43.00570679 C149.13251664 42.06220317 151.63610098 41.09181026 154.140625 40.12109375 C155.92234201 39.44730374 157.70483176 38.77555403 159.48803711 38.10571289 C163.27095406 36.68239564 167.04994142 35.24924964 170.82666016 33.80957031 C176.91032066 31.49622364 183.01310551 29.23648777 189.12109375 26.98828125 C190.14313904 26.61205124 191.16518433 26.23582123 192.21820068 25.84819031 C194.25773348 25.09767988 196.29732435 24.34732726 198.3369751 23.59713745 C222.14525202 14.87710641 222.14525202 14.87710641 245.8125 5.78515625 C248.04682309 4.91783501 250.28119748 4.05064593 252.515625 3.18359375 C253.63066406 2.73371094 254.74570312 2.28382813 255.89453125 1.8203125 C263.26639725 -1.00313792 269.85251742 -2.45796712 277.765625 -1.44140625 C282.69650129 0.84792917 285.20428997 3.8018287 287.765625 8.55859375 C290.65054243 16.66383796 290.34531155 25.69936976 286.85955811 33.65338135 C283.42792044 39.62997956 277.25201209 42.61704194 271 44.82421875 C270.234599 45.10823547 269.469198 45.3922522 268.68060303 45.68487549 C266.047413 46.65741955 263.40665017 47.60754802 260.765625 48.55859375 C258.72155006 49.3080045 256.67795107 50.05871439 254.63476562 50.81054688 C248.9673552 52.89074855 243.2930299 54.95135971 237.61618042 57.00564575 C232.71228301 58.78023955 227.81003751 60.55937568 222.90769958 62.33827209 C220.48815387 63.21621187 218.06852808 64.09393098 215.64881897 64.97142029 C206.82727885 68.1709096 198.01188885 71.38661624 189.203125 74.62109375 C188.07632324 75.03391602 186.94952148 75.44673828 185.78857422 75.87207031 C180.45157428 77.8291528 175.11893374 79.79719056 169.79341125 81.78526306 C167.06721515 82.80206401 164.33925197 83.81407428 161.6111145 84.82565308 C159.72393907 85.52760436 157.83932257 86.23642372 155.95483398 86.94555664 C129.3184354 96.81631109 111.78411523 90.61218804 86.140625 80.99609375 C83.94522415 80.1800507 81.74950155 79.36487274 79.5534668 78.55053711 C75.2361964 76.94864502 70.92040715 75.34287058 66.60595703 73.73339844 C59.27398313 71.00005395 51.92754071 68.30709548 44.578125 65.62109375 C42.26686389 64.77360983 39.95566483 63.92595665 37.64453125 63.078125 C33.40395025 61.52379626 29.16213024 59.97292393 24.91911316 58.42526245 C0.5742327 49.54507158 0.5742327 49.54507158 -9.734375 45.62109375 C-10.77416504 45.2338916 -10.77416504 45.2338916 -11.83496094 44.83886719 C-18.09490951 42.42291334 -23.27797162 39.76331419 -26.41796875 33.6015625 C-29.56013602 25.73862719 -30.25290659 17.35437753 -27.4453125 9.29296875 C-22.12981751 -2.37519097 -11.46442999 -3.75203514 0 0 Z " fill="#00C6FD" transform="translate(381.234375,526.44140625)"/>
<path d="M0 0 C0.83332855 0.30473236 1.6666571 0.60946472 2.52523804 0.9234314 C5.26928337 1.92994181 8.00763804 2.95104591 10.74609375 3.97265625 C12.68861316 4.68912847 14.63140868 5.40485246 16.57446289 6.11987305 C22.78332869 8.40941302 28.98381165 10.72115476 35.18359375 13.03515625 C37.27959738 13.81614787 39.37562598 14.59707249 41.47167969 15.37792969 C75.40812512 28.02827536 75.40812512 28.02827536 92.234375 34.51171875 C93.57233433 35.02566776 94.91030583 35.5395851 96.24829102 36.0534668 C98.58853271 36.95468077 100.92654524 37.8617219 103.26147461 38.77661133 C118.81895702 44.77102359 128.71149723 46.06413639 144.37109375 40.1953125 C145.44670563 39.80147873 146.5223175 39.40764496 147.63052368 39.00187683 C151.15179966 37.70999126 154.66764138 36.40395312 158.18359375 35.09765625 C160.63947302 34.19341693 163.09569518 33.29010837 165.55224609 32.38769531 C170.6041817 30.53018281 175.65403018 28.6671744 180.70214844 26.79931641 C187.78655987 24.17855942 194.87852958 21.57870402 201.97265625 18.984375 C214.16246641 14.52387784 214.16246641 14.52387784 226.34765625 10.05078125 C227.24792542 9.71993027 228.14819458 9.38907928 229.07574463 9.04820251 C233.71679882 7.33623975 238.3450084 5.59566288 242.95996094 3.81445312 C244.37503433 3.26914948 244.37503433 3.26914948 245.81869507 2.71282959 C247.5985823 2.02472997 249.37689638 1.33254011 251.15322876 0.63531494 C268.00830228 -5.88647096 268.00830228 -5.88647096 275.03515625 -3.27734375 C280.77990448 -0.34385529 283.34016225 3.66551537 285.49609375 9.72265625 C287.02241431 16.91423872 286.28890155 24.76229181 282.49389648 31.13574219 C277.39164861 38.53195767 269.95075791 40.98593752 261.74609375 43.78515625 C259.7457871 44.48969697 257.74784932 45.20070314 255.74996948 45.91209412 C254.28792099 46.43256931 252.82527404 46.95136588 251.36209106 47.46864319 C242.4245537 50.63610379 233.55914001 53.99448661 224.68725586 57.34042358 C206.59453637 64.16048765 188.47789717 70.91630262 170.34814453 77.63723755 C167.96464996 78.52089062 165.58134613 79.40505838 163.19824219 80.2897644 C159.86191059 81.52808794 156.52482857 82.76436625 153.1875 84 C152.20515884 84.36484497 151.22281769 84.72968994 150.21070862 85.10559082 C135.47810954 90.55124698 124.76570136 93.30599616 109.515625 87.99609375 C108.60333633 87.68494629 107.69104767 87.37379883 106.75111389 87.05322266 C96.7846826 83.61786668 86.94902794 79.84492764 77.12109375 76.03515625 C65.02106901 71.35416565 52.8931322 66.83051139 40.63305664 62.58496094 C35.19859678 60.70076526 29.81051268 58.70224768 24.43359375 56.66015625 C22.41281652 55.89698686 20.39198136 55.13397082 18.37109375 54.37109375 C17.35789062 53.98791992 16.3446875 53.60474609 15.30078125 53.20996094 C11.05892137 51.61129006 6.80980964 50.03233039 2.56103516 48.45214844 C-1.39949581 46.97429223 -5.35314604 45.47862681 -9.30566406 43.97949219 C-11.45705045 43.17031652 -13.6145852 42.38351343 -15.77734375 41.60546875 C-21.96437416 39.26814615 -26.52823847 36.96539569 -29.81640625 31.03515625 C-32.85694583 24.11530755 -34.48280037 16.15080702 -32.08984375 8.8046875 C-29.62071851 3.45491614 -26.42738893 -0.65935241 -21.06640625 -3.33984375 C-13.69542303 -4.75734052 -6.87213459 -2.58891281 0 0 Z " fill="#00C6FD" transform="translate(384.81640625,459.96484375)"/>
<path d="M0 0 C3.84724728 1.95859862 7.08727899 4.0682957 9 8 C9.70928668 16.27054021 7.43703299 23.27717444 4.9609375 31.09765625 C4.52649061 32.50286829 4.09321352 33.90844243 3.66101074 35.31434631 C2.49044375 39.11127221 1.30469291 42.90329551 0.11592865 46.69455719 C-1.12896635 50.67313213 -2.36079475 54.65574468 -3.59326172 58.63818359 C-5.13596244 63.62125614 -6.67956924 68.60403314 -8.22879028 73.58508301 C-11.68937899 84.71825008 -15.09278591 95.86755017 -18.45482254 107.03085899 C-19.21225009 109.54483244 -19.97112342 112.05836444 -20.7305603 114.57173157 C-20.97733835 115.38847571 -21.2241164 116.20521986 -21.47837257 117.04671383 C-21.97064359 118.67579728 -22.46295154 120.30486958 -22.95529747 121.9339304 C-24.15792248 125.91515385 -25.35721447 129.89732566 -26.54962158 133.88162231 C-27.67074844 137.62688697 -28.80130103 141.3691802 -29.93882751 145.10949516 C-30.35366445 146.4797163 -30.76502026 147.85099712 -31.17256165 149.22340584 C-31.73096099 151.1023924 -32.30293157 152.9773297 -32.87548828 154.85205078 C-33.19107697 155.90063263 -33.50666565 156.94921448 -33.83181763 158.02957153 C-35.7177718 162.82513435 -38.3080933 167.59064251 -43 170 C-47.78125708 171.30656134 -51.73943787 171.48896712 -56.3125 169.4375 C-60.05447116 167.24908174 -62.15608488 164.99514944 -64 161 C-64.50183052 154.42044424 -63.14217186 149.14217381 -61.140625 142.90625 C-60.8402684 141.93851654 -60.5399118 140.97078308 -60.23045349 139.97372437 C-59.2471264 136.81254387 -58.24852068 133.65641055 -57.25 130.5 C-56.21228068 127.17689456 -55.17843406 123.85259858 -54.14457703 120.52828979 C-53.44485231 118.27975958 -52.74376486 116.031653 -52.04133606 113.78396606 C-49.08803382 104.32696338 -46.23861961 94.84129317 -43.42041016 85.34332275 C-39.29765564 71.458553 -35.03339211 57.63128056 -30.51757812 43.86914062 C-28.51708734 37.76357769 -26.58073091 31.65136518 -24.77734375 25.484375 C-24.42381836 24.28603027 -24.07029297 23.08768555 -23.70605469 21.85302734 C-23.04839645 19.60734201 -22.40356432 17.35784217 -21.77441406 15.10400391 C-19.84311275 8.53779191 -17.9323786 4.52467887 -11.9921875 0.7109375 C-8.06700482 -0.68981397 -4.09333393 -0.53025811 0 0 Z " fill="#00C5FC" transform="translate(538,278)"/>
<path d="M0 0 C7.09308446 3.1048021 12.92319103 9.1925926 18.74609375 14.2109375 C21.60285225 16.67108703 24.50777678 19.06438105 27.4375 21.4375 C32.30049424 25.39443418 37.05700203 29.46435942 41.80615234 33.55615234 C45.35383769 36.60659846 48.93297392 39.6092175 52.5625 42.5625 C54.37554675 44.04099646 56.18801022 45.52020835 58 47 C58.56203125 47.45826172 59.1240625 47.91652344 59.703125 48.38867188 C61.4957874 49.85592708 63.27982548 51.33313372 65.0625 52.8125 C65.62332275 53.26890869 66.18414551 53.72531738 66.76196289 54.19555664 C70.37909573 57.21568156 72.46201483 59.46718484 73.44140625 64.078125 C73.68919265 68.52229403 73.25302495 71.34002153 70.375 74.8125 C65.22244419 80.04816155 59.50279114 84.72675743 53.86816406 89.43017578 C51.98904464 91.00920582 50.12912861 92.60837343 48.2734375 94.21484375 C47.68127441 94.72490967 47.08911133 95.23497559 46.47900391 95.76049805 C45.34579687 96.73673303 44.21516071 97.71596204 43.08740234 98.69848633 C39.22594706 102 39.22594706 102 37 102 C37 102.66 37 103.32 37 104 C35.3214487 105.49629179 33.58041102 106.92292661 31.8125 108.3125 C27.95485895 111.35420091 24.46041266 114.51670858 21 118 C19.81663932 118.94868578 18.60954842 119.86895663 17.375 120.75 C12.94528646 123.97772296 8.78627966 127.49590096 4.61328125 131.046875 C0.6263355 134.02665508 -1.94365072 135.01676745 -6.9375 134.9375 C-11.48886054 134.23065992 -13.78288516 132.21711484 -17 129 C-18.73895742 125.52208517 -18.45118342 121.8028317 -18 118 C-13.93641829 109.87283658 -6.08632654 104.16645206 0.8515625 98.578125 C4.42962996 95.67451754 7.90147344 92.6522348 11.375 89.625 C16.26655542 85.36563974 21.17366691 81.12730976 26.125 76.9375 C26.64497559 76.49680176 27.16495117 76.05610352 27.70068359 75.60205078 C30.7613148 73.01736222 33.86125758 70.48914921 37 68 C35.5045292 64.40278644 33.47293692 62.36902779 30.5625 59.8125 C29.66660156 59.02488281 28.77070312 58.23726563 27.84765625 57.42578125 C24.1874184 54.30780086 20.46113821 51.2772918 16.72265625 48.25390625 C14.05862647 46.04853296 11.49211558 43.7682369 8.9375 41.4375 C5.71148739 38.49688503 2.42880911 35.70132387 -1 33 C-4.56443211 30.17439796 -8.06680937 27.29681082 -11.5 24.3125 C-12.72203125 23.25482422 -12.72203125 23.25482422 -13.96875 22.17578125 C-16.88720321 19.04966887 -17.83931221 16.25872105 -18.375 12.0625 C-17.80703284 7.42410152 -15.61190512 4.43128995 -12.15234375 1.359375 C-8.27386916 -1.0901879 -4.41371123 -0.77272689 0 0 Z " fill="#00C5FC" transform="translate(595,298)"/>
<path d="M0 0 C3.42484369 2.28322912 4.97163392 4.19326784 6.8125 7.875 C7.40006939 11.98798574 7.26042134 14.08185149 5.2109375 17.7109375 C2.4492354 21.35422529 -0.56664184 24.08573775 -4.0625 27 C-5.0522583 27.84087158 -5.0522583 27.84087158 -6.06201172 28.69873047 C-7.4301529 29.86065529 -8.80077614 31.01966368 -10.17382812 32.17578125 C-12.65695008 34.27114119 -15.11951156 36.38967078 -17.58129883 38.51000977 C-28.33804402 47.76800101 -39.16771213 56.93108399 -50.1875 65.875 C-46.68687086 70.54250551 -42.7860345 73.90220192 -38.19140625 77.4765625 C-34.62275755 80.3259127 -31.18715369 83.30699289 -27.75 86.3125 C-23.38126767 90.12443846 -18.99499132 93.89895216 -14.5 97.5625 C-13.64019531 98.26375 -12.78039062 98.965 -11.89453125 99.6875 C-9.9209311 101.28232841 -7.93893921 102.86311239 -5.94921875 104.4375 C-4.86178004 105.31225252 -3.77453632 106.18724749 -2.6875 107.0625 C-1.7078125 107.83980469 -0.728125 108.61710937 0.28125 109.41796875 C3.98091773 113.00915857 5.61274495 116.27695962 6.25 121.375 C5.7168675 125.64006 4.61418958 127.63093838 1.8125 130.875 C-2.98969531 134.59670137 -7.71532242 134.17455177 -13.49609375 133.5078125 C-17.24597222 132.62612845 -18.15677583 131.09614869 -20.1875 127.875 C-21.42370012 126.83249022 -22.701161 125.83834553 -24 124.875 C-28.27865504 121.64145906 -32.33617395 118.21140155 -36.375 114.6875 C-37.01791992 114.12683838 -37.66083984 113.56617676 -38.32324219 112.98852539 C-39.63529438 111.84382014 -40.94714291 110.69888142 -42.25878906 109.55371094 C-45.24204371 106.95714651 -48.24488819 104.38370505 -51.25 101.8125 C-51.81887939 101.32539551 -52.38775879 100.83829102 -52.97387695 100.33642578 C-54.71143647 98.84891551 -56.44941408 97.36189514 -58.1875 95.875 C-62.35422007 92.31015176 -66.51868412 88.74273999 -70.67773438 85.16894531 C-72.01571674 84.02222692 -73.35903558 82.88174158 -74.703125 81.7421875 C-84.88394936 73.03192666 -84.88394936 73.03192666 -85.5 66.625 C-84.88741282 59.27395381 -79.40651939 54.60807717 -74.1875 49.875 C-71.55647286 47.65651792 -68.89111954 45.48695656 -66.2109375 43.328125 C-62.99745117 40.72080018 -59.83839153 38.05719467 -56.6875 35.375 C-52.74127089 32.02021335 -48.77106919 28.70277351 -44.75 25.4375 C-41.1263004 22.49324408 -37.56810535 19.48804685 -34.04199219 16.42871094 C-10.72707058 -3.78602491 -10.72707058 -3.78602491 0 0 Z " fill="#00C6FC" transform="translate(438.1875,299.125)"/>
<path d="M0 0 C0.33 0.66 0.66 1.32 1 2 C0.525625 3.134375 0.05125 4.26875 -0.4375 5.4375 C-2.97732837 11.88655729 -2.98462603 18.79656117 -0.8125 25.375 C2.4925318 32.87252584 8.89189673 36.00731475 16.16766357 38.84561157 C18.47615566 39.66888941 20.79348275 40.45899697 23.1171875 41.23828125 C24.89218424 41.846773 26.66657744 42.45702756 28.44042969 43.06884766 C29.35433472 43.38404358 30.26823975 43.6992395 31.20983887 44.02398682 C38.62418797 46.61756551 45.97289015 49.39629865 53.33105469 52.14428711 C56.15729455 53.19955825 58.98481352 54.25134648 61.8125 55.30273438 C63.64851258 55.98677768 65.48445278 56.6710153 67.3203125 57.35546875 C68.14653107 57.6628447 68.97274963 57.97022064 69.82400513 58.28691101 C75.58397039 60.4403268 81.29908937 62.69496875 87 65 C82.64572947 66.45142351 79.44815813 64.64618909 75.3125 63.125 C74.43110352 62.80837402 73.54970703 62.49174805 72.64160156 62.16552734 C62.76494516 58.59771036 52.93936582 54.88936258 43.1171875 51.17480469 C38.87532762 49.57613381 34.62621589 47.99717414 30.37744141 46.41699219 C26.41691044 44.93913598 22.46326021 43.44347056 18.51074219 41.94433594 C16.3593558 41.13516027 14.20182105 40.34835718 12.0390625 39.5703125 C5.85203209 37.2329899 1.28816778 34.93023944 -2 29 C-5.04164843 22.07762771 -6.8000071 13.92164105 -4.1328125 6.62890625 C-1.74978223 1.74978223 -1.74978223 1.74978223 0 0 Z " fill="#03AEEA" transform="translate(357,462)"/>
<path d="M0 0 C2 1 4 2 6 3 C6 3.66 6 4.32 6 5 C6.56332031 5.24363281 7.12664062 5.48726563 7.70703125 5.73828125 C10.43339281 7.23847679 12.41543375 9.06178262 14.6875 11.1875 C24.66750508 21.16950831 24.66750508 21.16950831 37.5 25.25 C38.2528125 25.25515625 39.005625 25.2603125 39.78125 25.265625 C42.26423974 24.96836566 43.8726332 24.2977401 46 23 C48.10360577 19.8999494 48.49994248 16.66708848 49 13 C48.34 13 47.68 13 47 13 C46.34 10.36 45.68 7.72 45 5 C48 6 48 6 49.6875 8.625 C51.18723965 12.48147338 51.51302956 14.89576354 51 19 C49.24650666 22.50698668 47.59159987 24.5415101 44.5 26.9375 C39.22364784 28.53924976 34.35177612 28.25832762 29 27 C26.8125 24.875 26.8125 24.875 25 22 C23.76379988 20.95749022 22.486339 19.96334553 21.1875 19 C16.63950623 15.56424591 12.31162116 11.91193938 8 8.1875 C7.32864014 7.61193359 6.65728027 7.03636719 5.96557617 6.44335938 C5.33756104 5.89873047 4.7095459 5.35410156 4.0625 4.79296875 C3.49660156 4.3033667 2.93070312 3.81376465 2.34765625 3.30932617 C1 2 1 2 0 0 Z " fill="#02AEEB" transform="translate(393,405)"/>
<path d="M0 0 C3.8319699 1.6317958 6.76121617 4.17597841 9.875 6.875 C10.43437256 7.35388672 10.99374512 7.83277344 11.57006836 8.32617188 C13.38355167 9.88008359 15.19201117 11.43970041 17 13 C18.90490531 14.63918394 20.81063399 16.2773979 22.71728516 17.91455078 C23.92279378 18.95035033 25.1269564 19.98771903 26.32958984 21.02685547 C29.1500179 23.45576304 31.98389717 25.81719697 35 28 C34.505 29.485 34.505 29.485 34 31 C34 30.34 34 29.68 34 29 C33.43410156 28.75378906 32.86820313 28.50757813 32.28515625 28.25390625 C29.60751742 26.78463776 27.66956388 25.02247565 25.4375 22.9375 C21.85571761 19.65068792 18.2169923 16.4950668 14.4375 13.4375 C9.50584781 9.44019217 4.5645762 5.41805894 0 1 C0 0.67 0 0.34 0 0 Z " fill="#01AEEC" transform="translate(600,335)"/>
<path d="M0 0 C0 3 0 3 -1.36328125 4.5078125 C-2.32814453 5.30832031 -2.32814453 5.30832031 -3.3125 6.125 C-4.38951172 7.02798828 -4.38951172 7.02798828 -5.48828125 7.94921875 C-6.73158203 8.96435547 -6.73158203 8.96435547 -8 10 C-8.98355469 10.81082031 -9.96710937 11.62164062 -10.98046875 12.45703125 C-13.64644304 14.64706188 -16.31987522 16.82732532 -19 19 C-19.66 18.67 -20.32 18.34 -21 18 C-14.21003284 11.70056279 -7.32046952 5.68487655 0 0 Z " fill="#01ADEB" transform="translate(631,367)"/>
<path d="M0 0 C3.39527689 1.40494216 5.30647023 2.69761694 7 6 C7.61160125 11.02453952 7.35456808 15.43802434 5 20 C3.54393481 15.47907032 4.72967159 12.48351204 6 8 C5.34 8 4.68 8 4 8 C3.71125 7.236875 3.4225 6.47375 3.125 5.6875 C2.03730987 2.84970692 2.03730987 2.84970692 0 0 Z " fill="#06A8E3" transform="translate(540,280)"/>
<path d="M0 0 C3 1 3 1 4.25 3.4375 C5 6 5 6 4 8 C3.34 8 2.68 8 2 8 C1.34 5.36 0.68 2.72 0 0 Z " fill="#02BAF0" transform="translate(438,410)"/>
<path d="M0 0 C2 1 2 1 2 1 Z " fill="#03C1F8" transform="translate(464,607)"/>
<path d="M0 0 C2 1 2 1 2 1 Z " fill="#00CAFE" transform="translate(601,472)"/>
<path d="M0 0 C2 1 2 1 2 1 Z " fill="#00C7F9" transform="translate(398,464)"/>
<path d="M0 0 C2 1 2 1 2 1 Z " fill="#07C7F7" transform="translate(361,456)"/>
<path d="" fill="#575958" transform="translate(0,0)"/>
<path d="" fill="#03C6F9" transform="translate(0,0)"/>
<path d="" fill="#04C8FB" transform="translate(0,0)"/>
<path d="" fill="#03C3F9" transform="translate(0,0)"/>
<path d="" fill="#04CCFD" transform="translate(0,0)"/>
<path d="" fill="#00CAFE" transform="translate(0,0)"/>
<path d="" fill="#00C7FD" transform="translate(0,0)"/>
<path d="" fill="#01CBFF" transform="translate(0,0)"/>
<path d="" fill="#0DC3F2" transform="translate(0,0)"/>
<path d="" fill="#09C2F3" transform="translate(0,0)"/>
<path d="" fill="#02CAFF" transform="translate(0,0)"/>
<path d="" fill="#00C8FD" transform="translate(0,0)"/>
<path d="" fill="#06C7F9" transform="translate(0,0)"/>
<path d="" fill="#04C8FD" transform="translate(0,0)"/>
<path d="" fill="#03C8FA" transform="translate(0,0)"/>
<path d="" fill="#02C9FE" transform="translate(0,0)"/>
<path d="" fill="#00CCFE" transform="translate(0,0)"/>
<path d="" fill="#04C5FB" transform="translate(0,0)"/>
<path d="" fill="#00C9FC" transform="translate(0,0)"/>
<path d="" fill="#0AC2F2" transform="translate(0,0)"/>
<path d="" fill="#03CDFF" transform="translate(0,0)"/>
<path d="" fill="#0EC2F4" transform="translate(0,0)"/>
<path d="" fill="#07C4F7" transform="translate(0,0)"/>
<path d="" fill="#03C8FC" transform="translate(0,0)"/>
<path d="" fill="#02C5F9" transform="translate(0,0)"/>
<path d="" fill="#02C8FA" transform="translate(0,0)"/>
<path d="" fill="#00CDFB" transform="translate(0,0)"/>
<path d="" fill="#03C9FA" transform="translate(0,0)"/>
<path d="" fill="#02CBFD" transform="translate(0,0)"/>
<path d="" fill="#05BEF3" transform="translate(0,0)"/>
<path d="" fill="#03C1F3" transform="translate(0,0)"/>
<path d="" fill="#05C4F9" transform="translate(0,0)"/>
<path d="" fill="#06C1F9" transform="translate(0,0)"/>
<path d="" fill="#05C4F5" transform="translate(0,0)"/>
<path d="" fill="#09C1F0" transform="translate(0,0)"/>
<path d="" fill="#0EBBED" transform="translate(0,0)"/>
</svg>
