<?xml version="1.0" encoding="UTF-8"?>
<svg version="1.1" xmlns="http://www.w3.org/2000/svg" width="430" height="402">
<path d="M0 0 C1.28887018 0.48395848 2.57785451 0.96761304 3.86694336 1.45098877 C7.29223953 2.73655979 10.71565898 4.02706014 14.1387558 5.31847382 C16.98644253 6.39182233 19.83549487 7.4615199 22.6845417 8.53125191 C36.71074037 13.79852583 50.72172042 19.10231797 64.6953125 24.5078125 C65.78127716 24.92719086 66.86724182 25.34656921 67.9861145 25.77865601 C73.00807995 27.71898377 78.0263977 29.66782363 83.03857422 31.63330078 C84.81728146 32.32350345 86.59608418 33.01346011 88.375 33.703125 C89.14827637 34.01034485 89.92155273 34.3175647 90.71826172 34.63409424 C105.53700819 40.34481027 116.72962277 39.10931976 131.3828125 33.4296875 C132.67794629 32.93945926 133.97362101 32.45065819 135.26977539 31.96313477 C138.11073453 30.89293178 140.948893 29.81567872 143.78564453 28.734375 C148.59741091 26.9049694 153.42443441 25.11798025 158.25390625 23.3359375 C173.62666354 17.65712472 188.98095196 11.9375311 204.26953125 6.03515625 C205.33689011 5.62363815 206.40424896 5.21212006 207.50395203 4.78813171 C212.69419502 2.78612899 217.88145054 0.77691484 223.06420898 -1.24438477 C224.95418108 -1.97563835 226.84423245 -2.7066871 228.734375 -3.4375 C230.00198921 -3.93640495 230.00198921 -3.93640495 231.29521179 -4.44538879 C239.63387332 -7.6555181 248.37138525 -10.25129735 257.3828125 -9.0078125 C262.49490891 -6.4517643 265.87678391 -2.9604922 268.47265625 2.12890625 C269.66656629 5.884855 269.71235705 9.46739471 269.6953125 13.3671875 C269.71142578 14.09679687 269.72753906 14.82640625 269.74414062 15.578125 C269.74976971 21.88270059 268.30799674 26.44597609 264.4453125 31.5546875 C256.21115259 38.10840661 245.83098377 41.50036411 236.00390625 44.94140625 C234.72431865 45.396177 233.44500886 45.85173006 232.16595459 46.30799866 C229.45633017 47.27324897 226.74524298 48.23420914 224.0328064 49.19152832 C217.59496655 51.46409692 211.16482107 53.75826355 204.73508644 56.05364609 C203.2792122 56.57338167 201.82324747 57.09286382 200.36719322 57.61209488 C183.58631935 63.59845006 166.90032532 69.83049336 150.23803711 76.1394043 C149.24257874 76.51423447 148.24712036 76.88906464 147.22149658 77.2752533 C145.40284223 77.96009827 143.5856495 78.64884679 141.77044678 79.3427887 C118.52631423 88.08149821 97.87048797 87.11022058 74.6328125 78.8046875 C73.41368164 78.37671875 72.19455078 77.94875 70.93847656 77.5078125 C58.14003977 72.99287179 45.42932582 68.22927922 32.72216797 63.46484375 C22.51484419 59.63863375 12.2937528 55.85587046 2.046875 52.13671875 C-0.18980345 51.32298483 -2.42645726 50.50918321 -4.66308594 49.6953125 C-7.92525827 48.5084997 -11.18820154 47.32412926 -14.45422363 46.14794922 C-17.48238631 45.05718291 -20.50705059 43.95716705 -23.53125 42.85546875 C-24.42008881 42.53834427 -25.30892761 42.22121979 -26.22470093 41.89448547 C-34.64602891 38.80874393 -42.48460117 35.61330054 -47.6171875 27.9921875 C-50.80846725 20.290265 -51.01607639 10.30796529 -48.89453125 2.24609375 C-46.54040914 -2.79573054 -43.11609281 -5.61953177 -38.3671875 -8.2578125 C-25.4739458 -11.77415114 -11.86523121 -4.4828738 0 0 Z " fill="#00C5FC" transform="translate(103.6171875,284.0078125)"/>
<path d="M0 0 C5.52666142 3.8558103 8.88498373 8.49202653 10.09375 15.09375 C11.08866901 22.41997179 10.47965261 28.48982285 7 35.0625 C1.39532354 41.8789984 -4.33822772 45.09399758 -12.6171875 47.95703125 C-14.77460492 48.73465951 -16.93181976 49.51284994 -19.08886719 50.29150391 C-20.25123901 50.70547424 -21.41361084 51.11944458 -22.61120605 51.54595947 C-28.59102145 53.69315911 -34.53877048 55.92553368 -40.49036789 58.14948654 C-44.12198957 59.5050991 -47.75610944 60.85397732 -51.39013672 62.203125 C-52.49606265 62.61382768 -52.49606265 62.61382768 -53.62433052 63.03282738 C-63.6275357 66.74754353 -73.63151506 70.46017603 -83.63607788 74.17123413 C-91.15116973 76.95894427 -98.66527544 79.74924872 -106.17715454 82.54560852 C-109.73024019 83.86752566 -113.28453006 85.18617514 -116.83929443 86.50357056 C-118.38301636 87.07645257 -119.92620575 87.65077202 -121.46881104 88.22665405 C-140.89931003 95.47827071 -155.65257929 97.20059463 -175.3125 89.875 C-177.51905703 89.07551288 -179.7261342 88.27746054 -181.93359375 87.48046875 C-187.40075086 85.49641114 -192.85823904 83.48799547 -198.31077576 81.46403503 C-204.03783556 79.34087732 -209.7731281 77.24053661 -215.50921631 75.14190674 C-230.76551673 69.55947524 -246.00743512 63.93934401 -261.21876335 58.23538399 C-264.57561523 56.97670806 -267.93375331 55.72171772 -271.29492188 54.47460938 C-274.64573319 53.23125215 -277.99320881 51.97928527 -281.33853531 50.72124863 C-283.18193591 50.03039313 -285.02852825 49.3480727 -286.87521362 48.66604614 C-302.10968248 42.91030482 -302.10968248 42.91030482 -306.15234375 37.33984375 C-306.51457031 36.50582031 -306.87679687 35.67179687 -307.25 34.8125 C-307.63027344 33.97589844 -308.01054687 33.13929688 -308.40234375 32.27734375 C-310.87708636 25.74529781 -311.56530601 18.85251865 -309.44140625 12.109375 C-306.91567055 6.57759977 -304.13467726 2.10149336 -298.3125 -0.125 C-289.53611976 -1.07900364 -282.15935098 0.33483743 -274 3.4375 C-272.90212158 3.83606201 -271.80424316 4.23462402 -270.6730957 4.64526367 C-267.55653896 5.784026 -264.44884795 6.94265299 -261.34375 8.11206055 C-259.25329883 8.89723602 -257.16029948 9.67522483 -255.06640625 10.45117188 C-239.63163846 16.17130851 -224.24089695 22.00772165 -208.84770203 27.83857727 C-204.0090959 29.67091945 -199.1697866 31.50140101 -194.33047485 33.33187866 C-190.80035763 34.66843385 -187.2715982 36.00852822 -183.74291992 37.34887695 C-181.55652904 38.17673022 -179.37008929 39.00445444 -177.18359375 39.83203125 C-175.68925812 40.40135376 -175.68925812 40.40135376 -174.16473389 40.98217773 C-153.13372725 48.92618542 -138.33087244 45.44908419 -117.74871826 37.78155518 C-115.02977965 36.76979531 -112.30824114 35.76522513 -109.58642578 34.76123047 C-97.50206899 30.29977187 -85.43489388 25.79344801 -73.37478638 21.26690674 C-63.57281168 17.590918 -53.74934513 13.9765644 -43.90795898 10.4074707 C-38.63847103 8.49035157 -33.39793598 6.52998742 -28.1953125 4.4375 C-27.23737793 4.0561792 -26.27944336 3.6748584 -25.29248047 3.28198242 C-23.56398053 2.58900574 -21.84080412 1.88246745 -20.12548828 1.1574707 C-13.43382263 -1.51990668 -6.92024271 -2.35027111 0 0 Z " fill="#00C5FC" transform="translate(363.3125,207.125)"/>
<path d="M0 0 C5.35755096 1.92063148 8.45837216 4.91674432 11 10 C11.34336828 15.17198467 10.44745047 19.03363451 7.0625 23 C5.73772911 24.3625444 4.38099257 25.6944715 3 27 C2.24074219 27.72058594 1.48148437 28.44117187 0.69921875 29.18359375 C-4.45577617 33.92750454 -9.84666497 38.35506623 -15.29296875 42.7578125 C-17.87303591 44.89483782 -20.34714485 47.10735745 -22.8125 49.375 C-27.42524503 53.59469763 -32.28237159 57.4283632 -37.2668457 61.19482422 C-40.33255368 63.54333918 -42.88576138 65.74907395 -45 69 C-40.24901082 73.98986573 -35.31399738 78.44092471 -29.88671875 82.6796875 C-26.42239661 85.4642712 -23.08976177 88.38075569 -19.75 91.3125 C-14.79314926 95.66304473 -9.73580843 99.80329413 -4.5 103.8125 C8.94750559 114.2756014 8.94750559 114.2756014 10.1875 122.125 C10.35404217 126.83886758 9.15081571 129.41157099 6 133 C5.54625 133.53238281 5.0925 134.06476563 4.625 134.61328125 C0.86260964 137.82397495 -5.14409671 137.0420936 -9.8125 136.8125 C-13.38759549 135.90120115 -14.79022834 134.91689859 -17 132 C-17 131.34 -17 130.68 -17 130 C-17.56460938 129.74347656 -18.12921875 129.48695313 -18.7109375 129.22265625 C-26.08660051 125.28309563 -32.29608646 118.88479123 -38.43359375 113.28515625 C-41.06404749 110.94297142 -43.76155847 108.71463274 -46.5 106.5 C-50.0947765 103.5918662 -53.58260628 100.61458668 -57 97.5 C-60.48178229 94.32820151 -64.03547166 91.28693509 -67.6875 88.3125 C-68.59886719 87.57 -69.51023437 86.8275 -70.44921875 86.0625 C-72.00677023 84.80310156 -73.57042322 83.55114239 -75.14453125 82.3125 C-78.90283811 79.27420561 -81.50904448 76.75242072 -83 72 C-83.49173735 66.80725362 -82.33730403 62.91456791 -79.3125 58.6875 C-73.94740769 52.37497866 -67.39211584 47.22695236 -61 42 C-60.04480469 41.21496094 -59.08960937 40.42992187 -58.10546875 39.62109375 C-56.33220831 38.16977225 -54.55617698 36.72182947 -52.77734375 35.27734375 C-49.65603533 32.71795864 -46.57553365 30.11402333 -43.5 27.5 C-38.63478586 23.36656895 -33.72424605 19.29569042 -28.76953125 15.26953125 C-26.77447736 13.63465634 -24.79395462 11.988994 -22.82421875 10.32421875 C-22.29062744 9.8744165 -21.75703613 9.42461426 -21.20727539 8.96118164 C-19.71151707 7.69806094 -18.21894019 6.43117563 -16.7265625 5.1640625 C-11.00636518 0.62396319 -7.24243236 -0.93409463 0 0 Z " fill="#00C5FB" transform="translate(137,48)"/>
<path d="M0 0 C6.52570821 5.74883819 6.52570821 5.74883819 6.85571289 10.94580078 C6.75490218 15.47913035 5.7803897 19.58135121 4.55859375 23.9296875 C4.33505722 24.74992401 4.11152069 25.57016052 3.88121033 26.41525269 C1.37301105 35.47305673 -1.47291235 44.42571369 -4.33432007 53.37680054 C-9.50990371 69.57106662 -14.55229793 85.79883859 -19.39657402 102.09496307 C-20.13905483 104.59237483 -20.88295652 107.08935942 -21.62721252 109.58624268 C-23.83663762 117.00203861 -26.04075337 124.41919254 -28.21944618 131.84408283 C-29.13317575 134.94903106 -30.05671698 138.05100236 -30.98261261 141.15234184 C-31.41251144 142.60030514 -31.83816481 144.04953694 -32.25917816 145.50010872 C-34.8183068 154.31071287 -37.52363324 161.64417666 -43.4375 168.8125 C-48.25796837 171.27401576 -53.08362739 171.01610179 -58.375 170.3125 C-63.24014214 168.05368401 -66.18433649 165.21958627 -68.375 160.3125 C-68.75901738 150.640361 -65.64789892 141.52040452 -62.7734375 132.421875 C-62.29874332 130.88770288 -61.8251369 129.35319382 -61.35253906 127.81837463 C-60.09251945 123.7370676 -58.81751738 119.66059154 -57.53936005 115.58493423 C-56.21612667 111.35648464 -54.90693929 107.12369029 -53.59619141 102.89135742 C-51.25556697 95.34098891 -48.90312179 87.79437512 -46.54374123 80.24984837 C-44.99190298 75.28757508 -43.44304406 70.32439237 -41.8984375 65.35986328 C-34.70207776 42.23030028 -34.70207776 42.23030028 -31.55844116 32.27645874 C-30.34907539 28.44377742 -29.15852057 24.60757107 -28.01269531 20.75537109 C-27.7948941 20.0323027 -27.5770929 19.30923431 -27.35269165 18.56425476 C-26.77409477 16.63865827 -26.20427873 14.71042919 -25.63525391 12.78198242 C-23.52920576 6.98402618 -21.24604873 1.86013389 -15.43359375 -1.02734375 C-9.98933113 -2.77322683 -5.08649678 -2.54324839 0 0 Z " fill="#00C4FB" transform="translate(243.375,29.6875)"/>
<path d="M0 0 C7.19253843 2.84774996 12.66908818 8.21081326 18.2265625 13.43359375 C21.70655608 16.65381316 25.36328549 19.60858715 29.05078125 22.5859375 C32.4136886 25.33862193 35.70920237 28.16192121 39 31 C45.87209715 36.91924334 52.84798364 42.70038435 59.94921875 48.34375 C71.16362751 57.32725501 71.16362751 57.32725501 74 63 C74.51094225 69.02911859 73.94376426 73.2002249 70 78 C64.29531497 83.74702035 57.91454034 88.77634589 51.61328125 93.84765625 C48.54474801 96.37495344 45.63190075 99.04391311 42.75390625 101.78515625 C41 103 41 103 37 103 C36.91298828 103.83337891 36.91298828 103.83337891 36.82421875 104.68359375 C35.61986723 108.06833521 33.47525758 109.67410846 30.8125 112.0625 C30.28366211 112.5371167 29.75482422 113.0117334 29.20996094 113.50073242 C23.04361422 118.96325269 16.54870822 124.00805334 10 129 C9.1440625 129.65613281 8.288125 130.31226563 7.40625 130.98828125 C1.9534693 135.1272579 -1.16648397 136.45863543 -8.16015625 136.421875 C-12.59578305 135.76293732 -15.29621655 133.49451257 -18 130 C-19.55491322 125.33526033 -20.03762449 121.31722464 -18.01171875 116.79296875 C-12.40539968 107.77548089 -3.7242093 101.50971247 4.50390625 95.02734375 C7.92942124 92.24511796 11.16201078 89.26970715 14.421875 86.296875 C18.00009349 83.10900762 21.71357047 80.1010509 25.4375 77.0859375 C28.67739086 74.44858732 31.84317799 71.73591241 35 69 C31.53205724 61.3506143 24.20134079 56.4513502 17.8125 51.3125 C15.19034106 49.15650265 12.68391432 46.92432897 10.1875 44.625 C5.10500868 39.98976792 -0.26627112 35.78362478 -5.703125 31.578125 C-6.8033192 30.72033276 -7.90229434 29.8609745 -9 29 C-9.55115479 28.56921143 -10.10230957 28.13842285 -10.67016602 27.69458008 C-15.38162675 23.91088371 -18.53793445 20.10376857 -19.23046875 13.953125 C-18.93468331 8.30033662 -16.08023247 4.73389974 -12 1 C-8.19860988 -0.90069506 -4.13248539 -0.58703379 0 0 Z " fill="#00C4FB" transform="translate(297,48)"/>
<path d="M0 0 C1.125 1.6875 1.125 1.6875 2 4 C1.37003229 5.68088159 0.69626707 7.34548062 0 9 C-0.65986832 15.59173719 -1.41746806 23.50142638 1.625 29.5625 C8.63110754 37.96907476 22.54690245 41.50754537 32.6494751 44.91564941 C36.32881487 46.15816828 39.99641845 47.4343816 43.6640625 48.7109375 C44.4214975 48.97414795 45.1789325 49.2373584 45.95932007 49.50854492 C54.74723648 52.5810602 63.43835796 55.90379553 72.125 59.25 C72.87922241 59.5403009 73.63344482 59.83060181 74.41052246 60.12969971 C78.60939061 61.74703213 82.80581327 63.37055806 87 65 C86.01 65.99 85.02 66.98 84 68 C64.67510785 60.98327594 45.34813641 53.96498242 26.1161499 46.69662476 C24.67754184 46.15408876 23.23781934 45.61449758 21.79693604 45.07803345 C3.31301011 38.18714131 3.31301011 38.18714131 -0.83984375 32.46484375 C-1.20207031 31.63082031 -1.56429687 30.79679687 -1.9375 29.9375 C-2.31777344 29.10089844 -2.69804688 28.26429688 -3.08984375 27.40234375 C-5.57905343 20.8321122 -6.419983 13.73862656 -3.8828125 7.05859375 C-2.66814267 4.64641045 -1.40172744 2.3078441 0 0 Z " fill="#02AFEA" transform="translate(58,212)"/>
<path d="M0 0 C4.51160688 1.41793359 6.76127883 3.61064064 10 7 C11.96356749 8.77675874 13.95923422 10.50979056 15.96875 12.234375 C17.24325519 13.34221413 18.49722735 14.47462611 19.71875 15.640625 C25.21993076 20.77852024 31.76363605 24.07478414 39.375 24.5 C42.95986159 24.27046292 42.95986159 24.27046292 45.375 22.4375 C47.39014684 19.41477974 48.18718714 16.52218907 49 13 C48.01 12.67 47.02 12.34 46 12 C45.505 8.535 45.505 8.535 45 5 C46.8125 5.0625 46.8125 5.0625 49 6 C51.40761458 10.38529799 52.7543694 13.93494831 52 19 C50.0628157 22.40677239 48.00659898 25.46926561 45 28 C39.81244777 29.40747541 34.17398816 29.31885973 29 28 C26.5625 26.0625 26.5625 26.0625 25 24 C25 23.34 25 22.68 25 22 C24.15308594 21.61521484 24.15308594 21.61521484 23.2890625 21.22265625 C14.26746946 16.40395553 6.19195499 8.19195499 -1 1 C-0.67 0.67 -0.34 0.34 0 0 Z " fill="#01B1EB" transform="translate(95,156)"/>
<path d="M0 0 C5.32575817 2.82632946 9.64660288 6.04547375 14.125 10.0625 C15.43036301 11.21425219 16.73636583 12.36527961 18.04296875 13.515625 C18.69700684 14.09376953 19.35104492 14.67191406 20.02490234 15.26757812 C23.12831407 17.98968067 26.28038266 20.65306285 29.4375 23.3125 C29.99904785 23.78631104 30.5605957 24.26012207 31.13916016 24.74829102 C32.4253989 25.83303393 33.71258129 26.91665778 35 28 C34.01 28.495 34.01 28.495 33 29 C28.24639642 27.08246739 24.989598 24.39658635 21.3125 20.875 C16.50124523 16.3299417 11.55544134 12.09696595 6.375 7.97265625 C4.09881861 6.08207795 1.98213204 4.19778066 0 2 C0 1.34 0 0.68 0 0 Z " fill="#00AFEB" transform="translate(302,86)"/>
<path d="M0 0 C0.8125 1.6875 0.8125 1.6875 1 4 C-1.0234375 6.3828125 -1.0234375 6.3828125 -4 9 C-4.52368164 9.47663086 -5.04736328 9.95326172 -5.58691406 10.44433594 C-7.24543604 11.94678497 -8.93084556 13.41292151 -10.625 14.875 C-11.19734375 15.38546875 -11.7696875 15.8959375 -12.359375 16.421875 C-14.0390625 17.8671875 -14.0390625 17.8671875 -17 20 C-17.99 19.67 -18.98 19.34 -20 19 C-18.46846008 15.0870483 -16.07723993 13.19176105 -12.8125 10.625 C-11.34296875 9.45517578 -11.34296875 9.45517578 -9.84375 8.26171875 C-8.9053125 7.51535156 -7.966875 6.76898438 -7 6 C-4.64685396 4.02158441 -2.32328813 2.01351638 0 0 Z " fill="#00AFE9" transform="translate(332,117)"/>
<path d="M0 0 C2.53903996 0.35021241 3.82093298 0.84011873 5.75 2.5625 C8.19996834 7.33993827 7.26529388 12.93882449 6 18 C5.01 18 4.02 18 3 18 C3.10699219 17.33613281 3.21398437 16.67226563 3.32421875 15.98828125 C4.17292446 10.38089786 4.17292446 10.38089786 2.625 5.0625 C1.820625 4.0415625 1.820625 4.0415625 1 3 C0.67 2.01 0.34 1.02 0 0 Z " fill="#04ACE6" transform="translate(243,32)"/>
</svg>
